# xmcd
#
# Track frame offsets: 
#        150
#        15575
#        33785
#        51840
#        65017
#        82830
#        101965
#        113855
#        127715
#        143605
#        154252
#
# Disc length: 2202 seconds
#
# Revision: 1
# Processed by: cddbd v1.5.2PL0 Copyright (c) Steve Scherf et al.
# Submitted via: ExactAudioCopy v1.0b2
#
DISCID=8508980b
DTITLE=New Riders of the Purple Sage - Marin County Line
DYEAR=1977
DGENRE=Country-Rock
TTITLE0=Till I Met You
TTITLE1=Llywelyn
TTITLE2=Knights and Queens
TTITLE3=Green Eyes a Flashing
TTITLE4=Oh, What a Night
TTITLE5=A Good Woman Likes to Drink with the Boys
TTITLE6=Jasper
TTITLE7=Echoes
TTITLE8=Twenty Good Men
TTITLE9=Little Miss Bad
TTITLE10=Take a Red
EXTD=MAC Records, Inc.\n1977
EXTT0=
EXTT1=
EXTT2=
EXTT3=
EXTT4=
EXTT5=
EXTT6=
EXTT7=
EXTT8=
EXTT9=
EXTT10=
PLAYORDER=
